<svg width="51" height="50" viewBox="0 0 51 50" fill="none" xmlns="http://www.w3.org/2000/svg">
<g clip-path="url(#clip0_185_1633)">
<path d="M1 25.0005L1.00179 25.0122C1.00179 25.2757 1.02955 25.533 1.04119 25.7938C1.03352 25.877 1.03774 25.9609 1.05373 26.0429C1.29308 30.2763 3.01484 34.2868 5.91265 37.3609C5.9347 37.3982 5.95955 37.4338 5.98697 37.4674C6.00309 37.4836 6.02458 37.489 6.0416 37.5035C7.69963 39.2385 9.68749 40.6191 11.8865 41.5629C14.0856 42.5066 16.4507 42.9941 18.8408 42.9964C18.8471 42.9964 18.8516 43 18.8578 43C18.8641 43 18.8686 42.9964 18.8757 42.9964C21.2754 43.003 23.6512 42.517 25.8584 41.5681C28.0657 40.6193 30.0581 39.2274 31.7144 37.4773C31.7188 37.4728 31.7242 37.4719 31.7287 37.4683L31.7376 37.4547L31.7556 37.4385C31.777 37.4082 31.7964 37.3766 31.8138 37.3437C31.8631 37.2841 31.9047 37.2182 31.9373 37.1479C31.9495 37.1059 31.9585 37.063 31.9642 37.0197C32.0079 36.9065 32.0117 36.7816 31.9749 36.6659C31.9682 36.6014 31.9544 36.5378 31.9338 36.4764C31.907 36.4221 31.8749 36.3707 31.8379 36.3229C31.8142 36.2768 31.7863 36.233 31.7547 36.1921C28.8855 33.1861 27.2858 29.1752 27.2924 25.0041V24.9968C27.2858 20.8257 28.8855 16.8148 31.7547 13.8088C31.7864 13.7676 31.8142 13.7235 31.8379 13.6771C31.8748 13.6298 31.9069 13.5791 31.9338 13.5254C31.9545 13.4637 31.9683 13.3998 31.9749 13.335C32.0117 13.2193 32.0079 13.0944 31.9642 12.9812C31.9585 12.9379 31.9495 12.895 31.9373 12.853C31.9047 12.7827 31.8631 12.7168 31.8138 12.6572C31.7961 12.6243 31.7764 12.5927 31.7547 12.5624L31.7376 12.5462L31.7287 12.5335C31.7242 12.529 31.7197 12.5281 31.7144 12.5245C30.0583 10.774 28.0659 9.38179 25.8587 8.43261C23.6514 7.48344 21.2755 6.99723 18.8757 7.00361C18.8695 7.00361 18.865 7 18.8587 7C18.8525 7 18.848 7.00361 18.8408 7.00361C16.4507 7.00597 14.0855 7.49365 11.8864 8.43755C9.68738 9.38145 7.69955 10.7622 6.0416 12.4974C6.02458 12.5119 6.00399 12.5164 5.98787 12.5326C5.96044 12.5662 5.9356 12.6018 5.91354 12.6391C3.01574 15.7132 1.29398 19.7237 1.05462 23.9571C1.03863 24.0391 1.03441 24.123 1.04209 24.2062C1.03045 24.4679 1.00269 24.7243 1.00269 24.9878L1 25.0005ZM6.60397 14.5534C7.2871 15.3627 7.8894 16.2379 8.40211 17.1663C6.51655 18.1557 4.79955 19.4417 3.31573 20.976C3.91625 18.6122 5.04049 16.4164 6.60397 14.5534ZM27.6918 16.3901C25.1725 15.3257 22.4832 14.7286 19.7533 14.6274V8.85384C23.538 9.05138 27.1271 10.6095 29.8697 13.2456C29.0346 14.2126 28.3045 15.2668 27.6918 16.3901ZM29.8697 36.7553C27.1271 39.3914 23.538 40.9495 19.7533 41.1471V35.3735C22.4832 35.2723 25.1725 34.6752 27.6918 33.6108C28.3045 34.7341 29.0346 35.7883 29.8697 36.7553ZM3.31484 29.0249C4.79892 30.5592 6.51623 31.8453 8.40211 32.8346C7.8894 33.763 7.2871 34.6382 6.60397 35.4475C5.04017 33.5846 3.91562 31.3888 3.31484 29.0249ZM12.1712 25.903H17.9623V33.5702C15.5033 33.4701 13.081 32.933 10.8074 31.9835C11.6115 30.0527 12.0731 27.9946 12.1712 25.903ZM9.18924 31.2145C6.76364 29.9476 4.66386 28.1291 3.05604 25.903H10.3793C10.2845 27.7288 9.88175 29.525 9.18834 31.2145H9.18924ZM17.9623 24.0979H12.1712C12.0731 22.0063 11.6115 19.9482 10.8074 18.0174C13.081 17.0679 15.5033 16.5308 17.9623 16.4307V24.0979ZM10.3802 24.0979H3.05694C4.66425 21.872 6.7634 20.0535 9.18834 18.7864C9.88206 20.4758 10.2851 22.272 10.3802 24.0979ZM10.0256 33.6081C12.544 34.6738 15.2328 35.2722 17.9623 35.3744V41.1462C14.1803 40.9374 10.5946 39.382 7.84422 36.7571C8.68077 35.7889 9.41207 34.7332 10.0256 33.6081ZM19.7533 33.5684V25.903H25.5444C25.6428 27.9957 26.105 30.0547 26.9101 31.9862C24.6355 32.9341 22.2127 33.4697 19.7533 33.5684ZM25.5444 24.0979H19.7533V16.4325C22.2127 16.5312 24.6355 17.0668 26.9101 18.0147C26.105 19.9462 25.6428 22.0052 25.5444 24.0979ZM17.9623 14.6265C15.2328 14.7287 12.544 15.3271 10.0256 16.3928C9.41207 15.2677 8.68077 14.212 7.84422 13.2438C10.5946 10.6189 14.1803 9.06351 17.9623 8.85474V14.6265Z" fill="black"/>
<path d="M29.8976 19.3982C29.6696 19.3131 29.4167 19.3207 29.1943 19.4192C28.972 19.5177 28.7984 19.699 28.7116 19.9235C28.1416 21.3834 27.9093 22.9502 28.0318 24.5097C28.1543 26.0692 28.6284 27.5821 29.4196 28.9382C29.5415 29.1464 29.7423 29.2983 29.9779 29.3606C30.2136 29.4228 30.4646 29.3903 30.6759 29.2702C30.8872 29.1501 31.0414 28.9522 31.1046 28.7201C31.1678 28.488 31.1348 28.2407 31.0129 28.0325C30.358 26.9092 29.966 25.6559 29.8654 24.3643C29.7649 23.0726 29.9584 21.7752 30.4318 20.5666C30.4747 20.4553 30.4948 20.3368 30.4912 20.2179C30.4875 20.0989 30.4601 19.9818 30.4105 19.8733C30.3609 19.7648 30.2901 19.667 30.2021 19.5855C30.1141 19.504 30.0106 19.4403 29.8976 19.3982ZM40.5698 14.7998C41.8691 15.0005 43.1066 15.4844 44.192 16.2162C45.2773 16.9479 46.1833 17.9091 46.8437 19.0296C46.9664 19.2359 47.1671 19.386 47.4018 19.4471C47.6365 19.5083 47.8862 19.4755 48.0965 19.3559C48.3067 19.2363 48.4604 19.0396 48.5241 18.8088C48.5877 18.578 48.556 18.3317 48.436 18.1238C47.64 16.7706 46.5474 15.6094 45.2379 14.725C43.9284 13.8406 42.4351 13.2554 40.8668 13.0119C40.7476 12.9927 40.6258 12.9968 40.5082 13.024C40.3907 13.0511 40.2797 13.1009 40.1816 13.1703C40.0836 13.2397 40.0004 13.3275 39.9368 13.4286C39.8731 13.5297 39.8304 13.6422 39.8109 13.7596C39.7914 13.877 39.7955 13.997 39.8231 14.1128C39.8507 14.2286 39.9012 14.3379 39.9716 14.4345C40.0421 14.5311 40.1312 14.6131 40.2339 14.6758C40.3365 14.7384 40.4506 14.7806 40.5698 14.7998ZM32.6043 27.1268L35.2429 31.6283C34.9718 31.837 34.7555 32.1069 34.6125 32.4153C34.4694 32.7236 34.4038 33.0613 34.421 33.3999C34.4397 33.8197 34.568 34.2277 34.7936 34.5844C35.0191 34.9412 35.3343 35.2345 35.7086 35.4361C36.0829 35.6378 36.5036 35.7408 36.9302 35.7354C37.3568 35.73 37.7747 35.6162 38.1436 35.4052L39.3231 34.734C39.8183 35.3595 40.5262 35.7876 41.3165 35.9393C42.1068 36.091 42.9262 35.9561 43.6235 35.5595C44.3208 35.163 44.849 34.5314 45.1108 33.7813C45.3727 33.0312 45.3504 32.2131 45.0481 31.4779L49.7581 28.7988C50.1272 28.5888 50.4352 28.2889 50.6526 27.9277C50.8699 27.5666 50.9893 27.1565 50.9993 26.7367C51.0093 26.317 50.9095 25.9018 50.7095 25.531C50.5095 25.1603 50.2161 24.8465 49.8574 24.6197C49.5683 24.4362 49.2387 24.3237 48.8964 24.2917C48.554 24.2597 48.2089 24.3092 47.8899 24.4359L45.2513 19.9344C44.4911 18.6675 43.3457 17.6682 41.9772 17.078C40.6087 16.4878 39.0865 16.3366 37.626 16.6457C37.6846 16.0574 37.555 15.4659 37.2554 14.9538V14.9529C36.8703 14.2956 36.2359 13.8161 35.4919 13.6196C34.7478 13.4232 33.955 13.526 33.2879 13.9054C32.6207 14.2848 32.1339 14.9098 31.9345 15.6428C31.7351 16.3758 31.8395 17.1568 32.2246 17.8141C32.5245 18.3254 32.979 18.7317 33.5246 18.9761C32.7935 19.7823 32.2561 20.7405 31.9525 21.7794C31.6886 22.6679 31.6104 23.5998 31.7226 24.519C31.8348 25.4381 32.1341 26.3253 32.6043 27.1268ZM43.4539 32.6979C43.4537 33.0916 43.2948 33.469 43.0123 33.7474C42.7297 34.0257 42.3466 34.1822 41.947 34.1824C41.5826 34.1782 41.2325 34.0422 40.9633 33.8002L43.4024 32.4135C43.4291 32.5064 43.4463 32.6017 43.4539 32.6979ZM33.7103 16.1131C33.7737 15.8782 33.9179 15.6721 34.1182 15.5302C34.3186 15.3882 34.5627 15.3191 34.809 15.3346C35.0552 15.3501 35.2884 15.4492 35.4688 15.6151C35.6492 15.7811 35.7656 16.0035 35.7981 16.2445C35.8307 16.4854 35.7774 16.7301 35.6474 16.9367C35.5173 17.1434 35.3186 17.2992 35.085 17.3776C34.8514 17.456 34.5974 17.4522 34.3664 17.3668C34.1353 17.2814 33.9415 17.1197 33.8179 16.9092C33.7476 16.79 33.702 16.6584 33.6835 16.5217C33.6651 16.3851 33.6742 16.2463 33.7103 16.1131ZM33.7204 22.2775C34.12 20.9109 35.0458 19.7523 36.3002 19.0486C37.1508 18.5617 38.1168 18.3045 39.1006 18.3032C40.02 18.2934 40.9256 18.5229 41.726 18.9685C42.5264 19.4141 43.1932 20.0601 43.6589 20.841L46.7453 26.1087C46.8674 26.3166 47.0682 26.4682 47.3036 26.5304C47.5391 26.5925 47.7899 26.5601 48.0012 26.4402L48.5326 26.1386C48.5831 26.1098 48.6407 26.0952 48.6991 26.0965C48.7575 26.0978 48.8144 26.1149 48.8635 26.1459C48.9569 26.2045 49.0333 26.2858 49.0854 26.3819C49.1375 26.4781 49.1636 26.5859 49.1611 26.6948C49.1586 26.8038 49.1276 26.9103 49.0711 27.0041C49.0147 27.0978 48.9346 27.1757 48.8387 27.23L37.2242 33.8364C37.1285 33.8912 37.0201 33.9208 36.9094 33.9222C36.7987 33.9237 36.6895 33.897 36.5924 33.8447C36.4952 33.7924 36.4134 33.7164 36.3548 33.6238C36.2962 33.5313 36.2629 33.4255 36.2579 33.3165C36.255 33.2589 36.2683 33.2016 36.2964 33.1509C36.3245 33.1003 36.3662 33.0582 36.417 33.0294L36.9484 32.7269C37.1595 32.6068 37.3136 32.409 37.3767 32.177C37.4398 31.9449 37.4068 31.6977 37.2849 31.4897L34.1976 26.222C33.8513 25.6305 33.6304 24.9759 33.5484 24.2979C33.4664 23.6199 33.5249 22.9326 33.7204 22.2775Z" fill="black"/>
</g>
<defs>
<clipPath id="clip0_185_1633">
<rect width="50" height="50" fill="white" transform="translate(0.666504)"/>
</clipPath>
</defs>
</svg>
