<svg width="49" height="50" viewBox="0 0 49 50" fill="none" xmlns="http://www.w3.org/2000/svg">
<path d="M48.5519 6.95611C48.5348 6.63932 48.3157 6.36949 48.009 6.28785L24.5035 0.0246826C24.3798 -0.00822752 24.2497 -0.00822752 24.1261 0.0246826L0.657159 6.28795C0.351105 6.36969 0.13216 6.63883 0.114582 6.95514C0.0982738 7.24811 -0.252409 14.2331 2.49436 23.0639C4.10872 28.2539 6.46535 32.9926 9.49894 37.1484C13.2937 42.3471 18.1608 46.6391 23.9651 49.9058C24.0765 49.9685 24.2004 50 24.3243 50C24.4423 50 24.5603 49.9715 24.6679 49.9144C30.4819 46.8262 35.3572 42.643 39.1581 37.481C42.1951 33.3563 44.5543 28.6037 46.1704 23.3552C48.9186 14.4291 48.5682 7.25719 48.5519 6.95611ZM44.755 22.9736C43.1847 28.0558 40.8985 32.6529 37.9598 36.6376C34.5322 41.2852 30.1979 45.1106 25.0658 48.0236V44.2556C31.719 40.0553 36.7368 34.1094 39.9804 26.5751C42.6512 20.3717 43.5215 14.4831 43.7813 10.6354C43.8049 10.2858 43.5777 9.96841 43.239 9.87828L41.7454 9.48033C41.3546 9.37623 40.9532 9.60855 40.849 9.99957C40.7449 10.3904 40.9772 10.7918 41.3682 10.896L42.2752 11.1376C41.9747 14.8677 41.0883 20.2971 38.6348 25.9958C35.5278 33.2129 30.737 38.9148 24.3912 42.9508C23.7542 42.5296 23.1277 42.09 22.5241 41.6406C22.1998 41.399 21.7408 41.4661 21.4991 41.7906C21.2575 42.115 21.3246 42.574 21.6491 42.8156C22.2799 43.2853 22.935 43.7433 23.6007 44.1828V47.9997C18.4662 44.9282 14.1308 41.0013 10.7021 36.3118C7.76427 32.2938 5.47893 27.7075 3.9094 22.6806C1.65032 15.4447 1.53987 9.34488 1.56331 7.56236L23.6007 1.68112V5.02672L5.43781 9.87398C5.09836 9.96461 4.87102 10.2835 4.89602 10.6339C5.08518 13.281 5.6176 17.3995 7.08039 21.9882C9.49865 29.5743 13.5602 35.9031 19.152 40.7989C19.291 40.9206 19.463 40.9803 19.6344 40.9803C19.8382 40.9803 20.0409 40.8957 20.1858 40.7303C20.4523 40.4259 20.4216 39.9631 20.1172 39.6967C14.7289 34.9793 10.8123 28.8716 8.47619 21.5434C7.16389 17.4267 6.62346 13.7003 6.40461 11.1325L24.316 6.35241L38.2022 10.0525C38.5931 10.1565 38.9945 9.92427 39.0986 9.53326C39.2027 9.14244 38.9704 8.74097 38.5794 8.63687L25.0657 5.036V1.6906L47.1029 7.56266C47.1271 9.37564 47.0214 15.6388 44.755 22.9736Z" fill="black"/>
</svg>
