<svg width="33" height="33" viewBox="0 0 33 33" fill="none" xmlns="http://www.w3.org/2000/svg">
<rect x="1.93408" y="1.5" width="30" height="30" rx="7" stroke="#FF3B30" stroke-width="2"/>
<path d="M23.1195 14.3618C23.1195 14.3618 22.661 20.0491 22.395 22.4448C22.2683 23.5891 21.5615 24.2595 20.4038 24.2807C18.2006 24.3203 15.9949 24.3229 13.7926 24.2764C12.6788 24.2536 11.9838 23.5747 11.8597 22.4507C11.592 20.0339 11.136 14.3618 11.136 14.3618" stroke="#FF3B30" stroke-width="2" stroke-linecap="round" stroke-linejoin="round"/>
<path d="M24.2876 11.6356H9.96753" stroke="#FF3B30" stroke-width="2" stroke-linecap="round" stroke-linejoin="round"/>
<path d="M21.5282 11.6357C20.8653 11.6357 20.2945 11.1671 20.1644 10.5177L19.9592 9.49083C19.8326 9.0171 19.4036 8.68945 18.9147 8.68945H15.3401C14.8512 8.68945 14.4222 9.0171 14.2955 9.49083L14.0903 10.5177C13.9603 11.1671 13.3895 11.6357 12.7266 11.6357" stroke="#FF3B30" stroke-width="2" stroke-linecap="round" stroke-linejoin="round"/>
</svg>
