<svg width="51" height="50" viewBox="0 0 51 50" fill="none" xmlns="http://www.w3.org/2000/svg">
<g clip-path="url(#clip0_185_1622)">
<path d="M49.5519 6.95611C49.5348 6.63932 49.3157 6.36949 49.009 6.28785L25.5035 0.0246826C25.3798 -0.00822752 25.2497 -0.00822752 25.1261 0.0246826L1.65716 6.28795C1.35111 6.36969 1.13216 6.63883 1.11458 6.95514C1.09827 7.24811 0.747591 14.2331 3.49436 23.0639C5.10872 28.2539 7.46535 32.9926 10.4989 37.1484C14.2937 42.3471 19.1608 46.6391 24.9651 49.9058C25.0765 49.9685 25.2004 50 25.3243 50C25.4423 50 25.5603 49.9715 25.6679 49.9144C31.4819 46.8262 36.3572 42.643 40.1581 37.481C43.1951 33.3563 45.5543 28.6037 47.1704 23.3552C49.9186 14.4291 49.5682 7.25719 49.5519 6.95611ZM45.755 22.9736C44.1847 28.0558 41.8985 32.6529 38.9598 36.6376C35.5322 41.2852 31.1979 45.1106 26.0658 48.0236V44.2556C32.719 40.0553 37.7368 34.1094 40.9804 26.5751C43.6512 20.3717 44.5215 14.4831 44.7813 10.6354C44.8049 10.2858 44.5777 9.96841 44.239 9.87828L42.7454 9.48033C42.3546 9.37623 41.9532 9.60855 41.849 9.99957C41.7449 10.3904 41.9772 10.7918 42.3682 10.896L43.2752 11.1376C42.9747 14.8677 42.0883 20.2971 39.6348 25.9958C36.5278 33.2129 31.737 38.9148 25.3912 42.9508C24.7542 42.5296 24.1277 42.09 23.5241 41.6406C23.1998 41.399 22.7408 41.4661 22.4991 41.7906C22.2575 42.115 22.3246 42.574 22.6491 42.8156C23.2799 43.2853 23.935 43.7433 24.6007 44.1828V47.9997C19.4662 44.9282 15.1308 41.0013 11.7021 36.3118C8.76427 32.2938 6.47893 27.7075 4.9094 22.6806C2.65032 15.4447 2.53987 9.34488 2.56331 7.56236L24.6007 1.68112V5.02672L6.43781 9.87398C6.09836 9.96461 5.87102 10.2835 5.89602 10.6339C6.08518 13.281 6.6176 17.3995 8.08039 21.9882C10.4986 29.5743 14.5602 35.9031 20.152 40.7989C20.291 40.9206 20.463 40.9803 20.6344 40.9803C20.8382 40.9803 21.0409 40.8957 21.1858 40.7303C21.4523 40.4259 21.4216 39.9631 21.1172 39.6967C15.7289 34.9793 11.8123 28.8716 9.47619 21.5434C8.16389 17.4267 7.62346 13.7003 7.40461 11.1325L25.316 6.35241L39.2022 10.0525C39.5931 10.1565 39.9945 9.92427 40.0986 9.53326C40.2027 9.14244 39.9704 8.74097 39.5794 8.63687L26.0657 5.036V1.6906L48.1029 7.56266C48.1271 9.37564 48.0214 15.6388 45.755 22.9736Z" fill="black"/>
<path d="M36.3536 17.1146C35.9197 16.6801 35.3425 16.4409 34.7282 16.4409C34.1138 16.4409 33.5366 16.6801 33.1031 17.1143L23.7675 26.4495L18.6708 21.3532C18.2371 20.9188 17.6598 20.6796 17.0455 20.6796C16.4311 20.6796 15.854 20.9187 15.4206 21.3527C14.9864 21.7868 14.7471 22.364 14.7471 22.978C14.7471 23.5921 14.9862 24.1691 15.4204 24.603L22.142 31.3247C22.5759 31.7591 23.153 31.9983 23.7674 31.9983C24.3817 31.9983 24.9589 31.7591 25.3925 31.325L36.353 20.3644C36.7873 19.9306 37.0265 19.3533 37.0265 18.7393C37.0265 18.1252 36.7874 17.548 36.3536 17.1146ZM35.3173 19.3283L24.3562 30.2893C24.1992 30.4466 23.9901 30.5332 23.7674 30.5332C23.5446 30.5332 23.3355 30.4466 23.1782 30.289L16.4561 23.5669C16.2988 23.4097 16.2121 23.2006 16.2121 22.9779C16.2121 22.7553 16.2988 22.5463 16.4566 22.3884C16.6137 22.2311 16.8228 22.1445 17.0455 22.1445C17.2681 22.1445 17.4771 22.2311 17.6347 22.3887L23.2496 28.0032C23.5356 28.2892 23.9995 28.2891 24.2854 28.0032L34.1394 18.1496C34.2965 17.9924 34.5056 17.9058 34.7283 17.9058C34.951 17.9058 35.1599 17.9924 35.3176 18.1501C35.4749 18.3073 35.5616 18.5165 35.5616 18.7391C35.5616 18.9616 35.4748 19.1709 35.3173 19.3283Z" fill="black"/>
</g>
<defs>
<clipPath id="clip0_185_1622">
<rect width="50" height="50" fill="white" transform="translate(0.333252)"/>
</clipPath>
</defs>
</svg>
