<svg width="28" height="28" viewBox="0 0 28 28" fill="none" xmlns="http://www.w3.org/2000/svg">
<path d="M21.913 14V19.8435C21.913 21.995 20.1416 23.7391 17.9565 23.7391H10.0434C7.85831 23.7391 6.08691 21.995 6.08691 19.8435V14" stroke="#8EC549" stroke-width="1.9"/>
<path d="M18.6707 4.26074H9.3293C7.54931 4.26074 5.94864 5.47303 5.28757 7.3218L4.54517 9.39801C4.32044 10.0265 4.1651 10.699 4.32901 11.3458C4.71721 12.8777 5.97665 13.9999 7.47039 13.9999C9.27349 13.9999 10.7352 12.3647 10.7352 10.3477C10.7352 12.3647 12.1969 13.9999 14 13.9999C15.8031 13.9999 17.2648 12.3647 17.2648 10.3477C17.2648 12.3647 18.7265 13.9999 20.5296 13.9999C22.0233 13.9999 23.2828 12.8777 23.671 11.3458C23.8349 10.699 23.6795 10.0265 23.4548 9.39801L22.7124 7.3218C22.0513 5.47302 20.4507 4.26074 18.6707 4.26074Z" stroke="#8EC549" stroke-width="1.9" stroke-linejoin="round"/>
<path d="M10.9565 18.8696C13.3468 20.5014 14.657 20.4842 17.0435 18.8696" stroke="#8EC549" stroke-width="1.9" stroke-linecap="round" stroke-linejoin="round"/>
</svg>
