<svg width="22" height="24" viewBox="0 0 22 24" fill="none" xmlns="http://www.w3.org/2000/svg">
<path d="M11.0389 0.233496H11.0393C16.5617 0.255198 21.0381 4.76062 21.0166 10.2762C21.0166 10.2763 21.0166 10.2765 21.0166 10.2766M11.0389 0.233496L20.9166 10.2762L21.0166 10.2766M11.0389 0.233496H11C5.49458 0.233496 1.0051 4.69513 0.983375 10.2646H0.983299L0.983435 10.2684C1.0743 12.8683 1.95315 15.3386 3.52379 17.4084C5.21008 19.6535 7.76537 22.0287 10.1944 23.6094C10.3588 23.7165 10.5418 23.7668 10.7234 23.7668C11.0403 23.7668 11.3523 23.612 11.5376 23.3264C11.831 22.877 11.7042 22.2769 11.2542 21.9848C9.00374 20.5197 6.63476 18.3178 5.07465 16.2403L5.07434 16.2399C3.74418 14.4879 3.00142 12.3998 2.92493 10.203C2.94317 5.76867 6.56234 2.17178 11 2.17178H11.0315C15.484 2.19008 19.0918 5.82226 19.075 10.3518C19.0119 13.6501 16.9486 16.4798 15.2142 18.2792L15.2141 18.2794C14.6991 18.8161 14.1514 19.3316 13.5884 19.8113L13.5884 19.8113C13.1807 20.1592 13.1315 20.7707 13.4799 21.179L13.48 21.1791M11.0389 0.233496L13.48 21.1791M21.0166 10.2766L21.0166 10.3847V10.3865H21.0166C20.9421 14.3268 18.5747 17.5883 16.6142 19.6233M21.0166 10.2766L16.6142 19.6233M16.6142 19.6233C16.0556 20.2058 15.4611 20.7646 14.8481 21.2864L16.6142 19.6233ZM13.48 21.1791C13.8283 21.5863 14.4404 21.6342 14.848 21.2865L13.48 21.1791ZM14.8709 10.3833C14.8709 8.24897 13.1326 6.51414 10.9969 6.51414C10.4614 6.51414 10.0261 6.9475 10.0261 7.48379C10.0261 8.01914 10.4615 8.45243 10.9969 8.45243C12.0625 8.45243 12.9294 9.31931 12.9294 10.3833C12.9294 11.4463 12.0625 12.3132 10.9969 12.3132C9.93129 12.3132 9.0644 11.4463 9.0644 10.3833C9.0644 9.84703 8.62912 9.41367 8.09362 9.41367C7.55813 9.41367 7.12285 9.84703 7.12285 10.3833C7.12285 12.5167 8.86118 14.2515 10.9969 14.2515C13.1326 14.2515 14.8709 12.5167 14.8709 10.3833Z" fill="#8EC549" stroke="#8EC549" stroke-width="0.2"/>
</svg>
